<svg width="265" height="109" viewBox="0 0 265 109" fill="none" xmlns="http://www.w3.org/2000/svg">
<path d="M52.5618 56C49.4392 56 46.709 55.3749 44.3714 54.1248C42.0337 52.8577 40.2164 51.0585 38.9196 48.7271C37.6399 46.3788 37 43.5913 37 40.3645C37 37.2729 37.5034 34.3333 38.5101 31.5458C39.5168 28.7414 40.9502 26.2495 42.8101 24.0702C44.67 21.8908 46.9053 20.1761 49.516 18.9259C52.1437 17.6589 55.0615 17.0253 58.2694 17.0253C60.5218 17.0253 62.5694 17.3463 64.4122 17.9883C66.2551 18.6303 67.8334 19.5595 69.1473 20.7758C70.4612 21.9922 71.4594 23.4535 72.1419 25.1598C72.8415 26.8661 73.1743 28.7921 73.1401 30.9376H65.2057C65.1545 29.8226 64.9583 28.8343 64.617 27.9727C64.2757 27.0942 63.798 26.3593 63.1837 25.768C62.5694 25.1598 61.8272 24.7037 60.9569 24.3996C60.1038 24.0786 59.1311 23.9181 58.0391 23.9181C55.8891 23.9181 53.9951 24.3996 52.357 25.3626C50.736 26.3086 49.3624 27.5757 48.2362 29.1637C47.1271 30.7518 46.2825 32.5172 45.7023 34.46C45.1392 36.386 44.8577 38.3288 44.8577 40.2885C44.8577 42.13 45.1648 43.7096 45.7791 45.0273C46.3934 46.345 47.3063 47.3587 48.5178 48.0682C49.7463 48.7609 51.2479 49.1072 53.0225 49.1072C54.1998 49.1072 55.3175 48.9552 56.3754 48.6511C57.4333 48.347 58.406 47.8908 59.2932 47.2827C60.1805 46.6745 60.9655 45.9396 61.648 45.078C62.3305 44.2164 62.8851 43.2365 63.3117 42.1384H71.2717C70.6233 44.2333 69.6934 46.1339 68.4819 47.8402C67.2704 49.5465 65.8456 51.0078 64.2075 52.2242C62.5694 53.4405 60.7607 54.3782 58.7813 55.037C56.8191 55.679 54.7459 56 52.5618 56Z" fill="#FFF94D"/>
<path d="M81.9336 40.5166L79.4509 55.3918H71.9003L78.2223 17.6335H85.7728L82.7526 35.6004H81.3449C82.198 34.0292 83.128 32.6862 84.1347 31.5712C85.1585 30.4392 86.3188 29.5776 87.6156 28.9864C88.9125 28.3782 90.3799 28.0741 92.018 28.0741C93.9462 28.0741 95.5757 28.488 96.9066 29.3158C98.2376 30.1267 99.1846 31.3177 99.7477 32.8889C100.328 34.46 100.43 36.3775 100.055 38.6413L97.2394 55.3918H89.7144L92.2995 40.0097C92.5896 38.219 92.3763 36.859 91.6597 35.9298C90.9601 34.9838 89.8168 34.5107 88.2299 34.5107C87.1891 34.5107 86.2335 34.7219 85.3633 35.1442C84.5101 35.5666 83.7764 36.2255 83.1621 37.1209C82.5649 37.9994 82.1554 39.1313 81.9336 40.5166Z" fill="#FFF94D"/>
<path d="M111.433 55.9493C109.079 55.9493 107.116 55.3665 105.546 54.2008C103.994 53.0351 102.91 51.4048 102.296 49.3099C101.682 47.2151 101.605 44.7739 102.066 41.9864C102.526 39.2326 103.422 36.8168 104.753 34.7388C106.084 32.6439 107.722 31.0136 109.667 29.848C111.613 28.6654 113.737 28.0741 116.04 28.0741C117.218 28.0741 118.284 28.2346 119.24 28.5556C120.195 28.8597 121.014 29.3242 121.697 29.9493C122.397 30.5575 122.943 31.3262 123.335 32.2554H123.437L124.052 28.6316H131.397L126.918 55.3918H119.573L120.238 51.3879H120.161C119.479 52.4016 118.677 53.2463 117.755 53.922C116.851 54.5978 115.861 55.1046 114.786 55.4425C113.728 55.7804 112.611 55.9493 111.433 55.9493ZM114.402 49.8674C115.665 49.8674 116.825 49.5465 117.883 48.9045C118.958 48.2456 119.854 47.3249 120.571 46.1423C121.304 44.9597 121.799 43.5744 122.055 41.9864C122.328 40.3814 122.294 38.9961 121.953 37.8304C121.629 36.6478 121.04 35.7355 120.187 35.0936C119.351 34.4347 118.301 34.1053 117.039 34.1053C115.827 34.1053 114.71 34.4178 113.686 35.0429C112.679 35.668 111.826 36.5634 111.126 37.729C110.444 38.8947 109.957 40.3138 109.667 41.9864C109.394 43.6589 109.403 45.0864 109.693 46.269C110 47.4347 110.555 48.3301 111.357 48.9552C112.176 49.5634 113.191 49.8674 114.402 49.8674Z" fill="#FFF94D"/>
<path d="M130.695 55.3918L135.174 28.6316H142.443L141.675 33.193H141.752C142.52 31.588 143.493 30.397 144.67 29.6199C145.864 28.8428 147.357 28.4542 149.149 28.4542C149.593 28.4542 149.994 28.4626 150.352 28.4795C150.727 28.4795 151.06 28.488 151.35 28.5049L150.301 34.8655C150.028 34.8486 149.576 34.8233 148.944 34.7895C148.33 34.7557 147.707 34.7388 147.076 34.7388C146.052 34.7388 145.088 34.9753 144.184 35.4483C143.296 35.9045 142.546 36.5887 141.931 37.501C141.317 38.4133 140.899 39.5452 140.677 40.8967L138.246 55.3918H130.695Z" fill="#FFF94D"/>
<path d="M162.601 17.6335L156.279 55.3918H148.728L155.05 17.6335H162.601Z" fill="#FFF94D"/>
<path d="M160.056 55.3918L164.535 28.6316H172.085L167.606 55.3918H160.056ZM168.886 25.0331C167.726 25.0331 166.804 24.6446 166.122 23.8674C165.439 23.0903 165.192 22.1442 165.379 21.0292C165.567 19.8973 166.13 18.9428 167.069 18.1657C168.024 17.3886 169.082 17 170.242 17C171.42 17 172.35 17.3886 173.032 18.1657C173.715 18.9428 173.962 19.8973 173.775 21.0292C173.587 22.1442 173.015 23.0903 172.06 23.8674C171.121 24.6446 170.063 25.0331 168.886 25.0331Z" fill="#FFF94D"/>
<path d="M184.206 56C181.595 56 179.352 55.5354 177.475 54.6062C175.598 53.6602 174.198 52.2411 173.277 50.3489C172.373 48.4399 172.066 46.0494 172.356 43.1774C172.543 40.8629 173.072 38.7765 173.942 36.9181C174.813 35.0429 175.956 33.4464 177.372 32.1287C178.806 30.794 180.452 29.7804 182.312 29.0877C184.172 28.3782 186.194 28.0234 188.378 28.0234C190.392 28.0234 192.2 28.3275 193.804 28.9357C195.408 29.5439 196.671 30.4646 197.592 31.6979C198.531 32.9142 199 34.4347 199 36.2593C199 38.1514 198.471 39.6719 197.413 40.8207C196.355 41.9526 194.811 42.8057 192.78 43.3801C190.767 43.9376 188.293 44.3177 185.358 44.5205C182.423 44.7063 179.079 44.7992 175.325 44.7992L176.118 39.9337C179.377 39.9337 182.039 39.8577 184.104 39.7057C186.185 39.5536 187.798 39.334 188.941 39.0468C190.084 38.7596 190.869 38.3879 191.296 37.9318C191.74 37.4756 191.961 36.9519 191.961 36.3606C191.961 35.5159 191.586 34.8571 190.835 34.384C190.101 33.911 189.026 33.6745 187.61 33.6745C186.057 33.6745 184.778 33.9532 183.771 34.5107C182.781 35.0682 181.996 35.82 181.416 36.7661C180.853 37.6953 180.444 38.7427 180.188 39.9084C179.932 41.0572 179.761 42.2482 179.676 43.4815C179.59 44.7823 179.642 45.9565 179.829 47.0039C180.034 48.0513 180.512 48.8791 181.263 49.4873C182.031 50.0955 183.208 50.3996 184.795 50.3996C186.45 50.3996 187.798 50.0702 188.839 49.4113C189.88 48.7355 190.613 47.8655 191.04 46.8012H198.104C197.132 49.5549 195.468 51.7765 193.113 53.4659C190.758 55.1553 187.789 56 184.206 56Z" fill="#FFF94D"/>
<path d="M8.4517 49.5149C6.72348 49.5149 5.22609 49.2131 3.95952 48.6094C2.70478 47.9938 1.78149 47.0824 1.18963 45.875C0.597775 44.6676 0.449811 43.1702 0.745739 41.3828C1.00616 39.8677 1.4974 38.6011 2.21946 37.5831C2.95336 36.5533 3.84706 35.7247 4.90057 35.0973C5.95407 34.4699 7.12003 33.9905 8.39844 33.6591C9.68868 33.3277 11.0204 33.1027 12.3935 32.9844C13.9796 32.8187 15.2699 32.6589 16.2642 32.505C17.2704 32.3511 18.022 32.1321 18.5192 31.848C19.0163 31.5521 19.3182 31.1141 19.4247 30.5341V30.4276C19.6023 29.3149 19.3951 28.4508 18.8033 27.8352C18.2232 27.2079 17.294 26.8942 16.0156 26.8942C14.6662 26.8942 13.518 27.1901 12.571 27.782C11.6359 28.3738 10.9671 29.1255 10.5646 30.0369L3.67543 29.4688C4.29096 27.8116 5.22017 26.3793 6.46307 25.1719C7.7178 23.9527 9.22704 23.0175 10.9908 22.3665C12.7545 21.7036 14.7313 21.3722 16.9212 21.3722C18.4363 21.3722 19.8509 21.5497 21.1648 21.9048C22.4905 22.2599 23.6328 22.8104 24.5916 23.5561C25.5623 24.3018 26.2607 25.2607 26.6868 26.4325C27.1248 27.5926 27.2135 28.9834 26.9531 30.6051L23.8814 49H16.7081L17.3473 45.218H17.1342C16.5542 46.0703 15.844 46.822 15.0036 47.473C14.1631 48.1122 13.1984 48.6153 12.1094 48.9822C11.0204 49.3374 9.80114 49.5149 8.4517 49.5149ZM11.4879 44.2947C12.5888 44.2947 13.6009 44.0758 14.5241 43.6378C15.4593 43.188 16.2287 42.5843 16.8324 41.8267C17.4479 41.0691 17.8385 40.2109 18.0043 39.2521L18.4659 36.358C18.2292 36.5118 17.8859 36.648 17.4361 36.7663C16.9981 36.8847 16.5187 36.9972 15.9979 37.1037C15.4889 37.1984 14.974 37.2872 14.4531 37.37C13.9323 37.4411 13.4647 37.5121 13.0504 37.5831C12.139 37.7133 11.3222 37.9205 10.6001 38.2045C9.87808 38.4886 9.29214 38.8733 8.84233 39.3587C8.39252 39.8321 8.11435 40.424 8.00781 41.1342C7.84209 42.1641 8.08475 42.9512 8.7358 43.4957C9.39867 44.0284 10.3161 44.2947 11.4879 44.2947Z" fill="white"/>
<path d="M132.71 100L137.54 70.9091H149.017C151.214 70.9091 153.018 71.3305 154.429 72.1733C155.849 73.0066 156.844 74.1667 157.412 75.6534C157.99 77.1307 158.122 78.8352 157.81 80.767C157.488 82.7083 156.787 84.4176 155.707 85.8949C154.637 87.3627 153.245 88.5085 151.531 89.3324C149.817 90.1562 147.838 90.5682 145.594 90.5682H138.278L139.088 85.6392H145.409C146.602 85.6392 147.62 85.4356 148.463 85.0284C149.315 84.6117 149.992 84.0388 150.494 83.3097C150.996 82.571 151.323 81.7235 151.474 80.767C151.635 79.7917 151.583 78.9441 151.318 78.2244C151.053 77.5047 150.565 76.946 149.855 76.5483C149.154 76.1411 148.212 75.9375 147.028 75.9375H142.881L138.861 100H132.71ZM157.295 100L160.931 78.1818H166.798L166.159 81.9886H166.386C167.011 80.6345 167.849 79.6117 168.9 78.9205C169.961 78.2197 171.102 77.8693 172.323 77.8693C172.626 77.8693 172.944 77.8883 173.275 77.9261C173.616 77.9545 173.919 78.0019 174.184 78.0682L173.275 83.4517C173.01 83.357 172.631 83.2812 172.139 83.2244C171.656 83.1581 171.197 83.125 170.761 83.125C169.88 83.125 169.061 83.3191 168.304 83.7074C167.546 84.0862 166.907 84.6165 166.386 85.2983C165.875 85.9801 165.538 86.7661 165.377 87.6562L163.346 100H157.295ZM181.333 100.426C179.108 100.426 177.266 99.9527 175.807 99.0057C174.349 98.0492 173.322 96.7235 172.725 95.0284C172.138 93.3239 172.029 91.34 172.398 89.0767C172.758 86.8419 173.506 84.8864 174.643 83.2102C175.779 81.5341 177.223 80.232 178.975 79.304C180.727 78.3665 182.701 77.8977 184.898 77.8977C187.114 77.8977 188.951 78.3759 190.41 79.3324C191.868 80.2794 192.895 81.6051 193.492 83.3097C194.089 85.0142 194.202 86.9981 193.833 89.2614C193.464 91.4867 192.706 93.4375 191.56 95.1136C190.414 96.7898 188.97 98.0966 187.228 99.0341C185.485 99.9621 183.52 100.426 181.333 100.426ZM181.93 95.7386C182.952 95.7386 183.857 95.4498 184.643 94.8722C185.438 94.285 186.096 93.4896 186.617 92.4858C187.147 91.4725 187.517 90.3267 187.725 89.0483C187.933 87.7888 187.948 86.6714 187.768 85.696C187.588 84.7112 187.209 83.9347 186.631 83.3665C186.063 82.7983 185.282 82.5142 184.287 82.5142C183.265 82.5142 182.356 82.8078 181.56 83.3949C180.765 83.9725 180.107 84.768 179.586 85.7812C179.065 86.7945 178.7 87.9451 178.492 89.233C178.293 90.483 178.279 91.6004 178.449 92.5852C178.62 93.5606 178.994 94.3324 179.572 94.9006C180.149 95.4593 180.935 95.7386 181.93 95.7386ZM198.414 78.1818H204.465L200.659 101.08C200.374 102.756 199.811 104.115 198.968 105.156C198.125 106.207 197.041 106.974 195.715 107.457C194.399 107.94 192.884 108.182 191.17 108.182C190.98 108.182 190.791 108.177 190.602 108.168C190.412 108.168 190.209 108.163 189.991 108.153L190.772 103.423C190.914 103.433 191.052 103.438 191.184 103.438C191.317 103.447 191.445 103.452 191.568 103.452C192.543 103.452 193.263 103.243 193.727 102.827C194.191 102.41 194.494 101.795 194.636 100.98L198.414 78.1818ZM202.008 75.3693C201.108 75.3693 200.37 75.071 199.792 74.4744C199.214 73.8684 198.978 73.1439 199.082 72.3011C199.186 71.4583 199.593 70.7386 200.303 70.142C201.014 69.5455 201.814 69.2472 202.704 69.2472C203.613 69.2472 204.352 69.5455 204.92 70.142C205.488 70.7386 205.725 71.4583 205.63 72.3011C205.535 73.1439 205.133 73.8684 204.423 74.4744C203.722 75.071 202.917 75.3693 202.008 75.3693ZM214.363 100.426C212.128 100.426 210.276 99.9716 208.809 99.0625C207.341 98.1439 206.309 96.8466 205.712 95.1705C205.125 93.4848 205.026 91.4915 205.414 89.1903C205.793 86.946 206.555 84.9763 207.701 83.2812C208.856 81.5862 210.305 80.2652 212.047 79.3182C213.79 78.3712 215.731 77.8977 217.871 77.8977C219.311 77.8977 220.613 78.1297 221.777 78.5938C222.952 79.0483 223.927 79.7396 224.704 80.6676C225.48 81.5862 226.01 82.7367 226.294 84.1193C226.588 85.5019 226.583 87.1212 226.28 88.9773L226.01 90.6392H207.601L208.184 86.8892H220.911C221.053 86.018 220.996 85.2462 220.74 84.5739C220.485 83.9015 220.059 83.3759 219.462 82.9972C218.865 82.6089 218.132 82.4148 217.26 82.4148C216.37 82.4148 215.537 82.6326 214.76 83.0682C213.984 83.5038 213.33 84.0767 212.8 84.7869C212.279 85.4877 211.943 86.25 211.792 87.0739L211.124 90.7955C210.935 91.9413 210.972 92.893 211.238 93.6506C211.512 94.4081 211.986 94.9763 212.658 95.3551C213.33 95.7244 214.183 95.9091 215.215 95.9091C215.887 95.9091 216.517 95.8144 217.104 95.625C217.701 95.4356 218.231 95.1562 218.695 94.7869C219.159 94.4081 219.538 93.9394 219.831 93.3807L225.357 93.75C224.846 95.0947 224.069 96.2689 223.027 97.2727C221.986 98.267 220.731 99.0436 219.263 99.6023C217.805 100.152 216.171 100.426 214.363 100.426ZM237.023 100.426C234.778 100.426 232.932 99.9527 231.483 99.0057C230.044 98.0492 229.035 96.7235 228.457 95.0284C227.889 93.3333 227.79 91.3826 228.159 89.1761C228.519 86.9413 229.272 84.9811 230.418 83.2955C231.563 81.6004 233.017 80.2794 234.778 79.3324C236.549 78.3759 238.538 77.8977 240.744 77.8977C242.648 77.8977 244.258 78.2434 245.574 78.9347C246.89 79.6259 247.856 80.5966 248.472 81.8466C249.087 83.0966 249.295 84.5644 249.097 86.25H243.401C243.41 85.1705 243.131 84.2945 242.562 83.6222C241.994 82.9498 241.161 82.6136 240.062 82.6136C239.116 82.6136 238.244 82.8693 237.449 83.3807C236.663 83.8826 235.995 84.6165 235.446 85.5824C234.906 86.5483 234.527 87.7178 234.31 89.0909C234.082 90.483 234.078 91.6667 234.295 92.642C234.513 93.6174 234.93 94.3608 235.545 94.8722C236.161 95.3835 236.938 95.6392 237.875 95.6392C238.576 95.6392 239.224 95.4972 239.821 95.2131C240.427 94.929 240.957 94.517 241.412 93.9773C241.866 93.428 242.217 92.7699 242.463 92.0028H248.173C247.785 93.679 247.08 95.1468 246.057 96.4062C245.044 97.6657 243.77 98.6506 242.236 99.3608C240.702 100.071 238.964 100.426 237.023 100.426ZM264.74 78.1818L263.987 82.7273H250.833L251.6 78.1818H264.74ZM255.436 72.9545H261.487L258.106 93.2955C258.011 93.8542 258.026 94.2898 258.149 94.6023C258.272 94.9053 258.475 95.1184 258.76 95.2415C259.053 95.3646 259.403 95.4261 259.811 95.4261C260.095 95.4261 260.384 95.4025 260.677 95.3551C260.971 95.2983 261.193 95.2557 261.345 95.2273L261.572 99.7301C261.231 99.8343 260.772 99.9479 260.194 100.071C259.626 100.194 258.954 100.27 258.177 100.298C256.7 100.355 255.45 100.161 254.427 99.7159C253.404 99.2614 252.671 98.5653 252.225 97.6278C251.78 96.6903 251.686 95.5114 251.941 94.0909L255.436 72.9545Z" fill="white"/>
</svg>
